<svg version="1.1" xmlns="http://www.w3.org/2000/svg" viewBox="0 0 916.0801393728227 471.0000000000001" width="916.0801393728227" height="471.0000000000001">
  <!-- svg-source:excalidraw -->
  
  <defs>
    <style class="style-fonts">
      @font-face {
        font-family: "Virgil";
        src: url("https://excalidraw.com/Virgil.woff2");
      }
      @font-face {
        font-family: "Cascadia";
        src: url("https://excalidraw.com/Cascadia.woff2");
      }
      @font-face {
        font-family: "Assistant";
        src: url("https://excalidraw.com/Assistant-Regular.woff2");
      }
    </style>
    
  </defs>
  <g stroke-linecap="round" transform="translate(279 128.33333333333337) rotate(0 66.5 48)"><path d="M24 0 C46.46 1.25, 67.01 -0.55, 109 0 M24 0 C51.45 0.15, 78.35 -1.29, 109 0 M109 0 C126.71 -0.9, 134.91 7.8, 133 24 M109 0 C124.74 -1.75, 135.12 8.79, 133 24 M133 24 C132.97 37.85, 131.87 50.8, 133 72 M133 24 C133.89 41.89, 133.52 60.07, 133 72 M133 72 C132.28 86.02, 125.77 96.09, 109 96 M133 72 C133.52 86.26, 124.39 96.61, 109 96 M109 96 C80.12 97.27, 47.9 97.41, 24 96 M109 96 C75.46 96.71, 41.23 97.7, 24 96 M24 96 C7.32 95.18, 0.4 88.46, 0 72 M24 96 C9.6 95.23, -0.27 87.01, 0 72 M0 72 C0.38 58.32, -0.85 43.39, 0 24 M0 72 C0.86 53.92, 0.65 33.79, 0 24 M0 24 C1.52 7.1, 9.87 1.39, 24 0 M0 24 C0.35 5.94, 8.43 -0.9, 24 0" stroke="#1e1e1e" stroke-width="2" fill="none"></path></g><g transform="translate(318.1000003814697 158.83333333333337) rotate(0 27.399999618530273 17.5)"><text x="27.399999618530273" y="0" font-family="Virgil, Segoe UI Emoji" font-size="28px" fill="#1e1e1e" text-anchor="middle" style="white-space: pre;" direction="ltr" dominant-baseline="text-before-edge">EVM</text></g><g stroke-linecap="round" transform="translate(279 365.0000000000001) rotate(0 66.5 48)"><path d="M24 0 C54.57 -0.51, 87.81 2.18, 109 0 M24 0 C53.01 -1.25, 81.25 -0.19, 109 0 M109 0 C123.34 -1.38, 132.96 8.63, 133 24 M109 0 C124.89 -2.01, 133.02 8.01, 133 24 M133 24 C131.41 36.36, 134.59 43.19, 133 72 M133 24 C132.16 33.99, 133.33 45.18, 133 72 M133 72 C131.62 86.81, 123.11 94.72, 109 96 M133 72 C134.02 89.04, 127.14 97.35, 109 96 M109 96 C78.92 96.67, 46.1 97.89, 24 96 M109 96 C86.85 94.8, 65.63 95.22, 24 96 M24 96 C7.46 96.52, 1.25 86.27, 0 72 M24 96 C7.98 96.44, 1.59 88.24, 0 72 M0 72 C-1.87 51.83, 0.11 33.66, 0 24 M0 72 C-0.36 58.48, 0.18 44.71, 0 24 M0 24 C0.6 6.97, 9.02 -0.03, 24 0 M0 24 C-0.03 7.54, 7.75 -1.13, 24 0" stroke="#1e1e1e" stroke-width="2" fill="none"></path></g><g transform="translate(318.1000003814697 395.5000000000001) rotate(0 27.399999618530273 17.5)"><text x="27.399999618530273" y="0" font-family="Virgil, Segoe UI Emoji" font-size="28px" fill="#1e1e1e" text-anchor="middle" style="white-space: pre;" direction="ltr" dominant-baseline="text-before-edge">EVM</text></g><g stroke-linecap="round" transform="translate(279 10) rotate(0 66.5 48)"><path d="M24 0 C58.4 2.3, 89.37 2.41, 109 0 M24 0 C50.8 0.9, 77.61 -0.29, 109 0 M109 0 C125.02 0.01, 131.37 7.28, 133 24 M109 0 C126.19 -1.64, 135.16 10.03, 133 24 M133 24 C132.25 33.09, 131.76 45.58, 133 72 M133 24 C131.73 39.52, 133.11 56.77, 133 72 M133 72 C134.86 89.17, 126.44 94.95, 109 96 M133 72 C134.49 89.75, 125.14 96.36, 109 96 M109 96 C76.07 95.39, 45.68 96.26, 24 96 M109 96 C84.51 95.36, 58.75 96.41, 24 96 M24 96 C9.38 96.21, 1.96 89.46, 0 72 M24 96 C8.84 94.26, -1.22 88.53, 0 72 M0 72 C0.01 57.44, 0.49 44.41, 0 24 M0 72 C0.37 56.77, -0.16 41.38, 0 24 M0 24 C-0.22 7.02, 6.78 0.46, 24 0 M0 24 C-1.09 7.49, 5.95 1.77, 24 0" stroke="#1e1e1e" stroke-width="2" fill="none"></path></g><g transform="translate(318.1000003814697 40.5) rotate(0 27.399999618530273 17.5)"><text x="27.399999618530273" y="0" font-family="Virgil, Segoe UI Emoji" font-size="28px" fill="#1e1e1e" text-anchor="middle" style="white-space: pre;" direction="ltr" dominant-baseline="text-before-edge">EVM</text></g><g stroke-linecap="round" transform="translate(279 246.66666666666674) rotate(0 66.5 48)"><path d="M24 0 C55.58 0.66, 90.56 0.61, 109 0 M24 0 C41.26 -0.36, 60.68 -0.72, 109 0 M109 0 C126.87 1.77, 131.23 6.34, 133 24 M109 0 C123.52 -0.41, 131.78 7.04, 133 24 M133 24 C131.99 39.58, 131.9 59.83, 133 72 M133 24 C134.16 40.04, 134.09 57.9, 133 72 M133 72 C133.12 88.31, 126.34 95.1, 109 96 M133 72 C134.04 86, 123.86 94.93, 109 96 M109 96 C84.55 97.03, 57.33 95.75, 24 96 M109 96 C82.87 96.82, 55.13 95.33, 24 96 M24 96 C6.94 96.46, -0.12 87.72, 0 72 M24 96 C8.66 95.93, -0.51 88.49, 0 72 M0 72 C-1.11 57.11, -0.11 40.15, 0 24 M0 72 C-0.56 58.78, -0.42 44.88, 0 24 M0 24 C-1.78 9.54, 9.13 1.52, 24 0 M0 24 C-0.41 8.83, 8.46 -1.47, 24 0" stroke="#1e1e1e" stroke-width="2" fill="none"></path></g><g transform="translate(334 277.16666666666674) rotate(0 11.5 17.5)"><text x="11.5" y="0" font-family="Virgil, Segoe UI Emoji" font-size="28px" fill="#1e1e1e" text-anchor="middle" style="white-space: pre;" direction="ltr" dominant-baseline="text-before-edge">...</text></g><g stroke-linecap="round" transform="translate(520.439024390244 184.67595818815334) rotate(0 90.02090592334491 46)"><path d="M23 0 C68.47 -1.15, 115.17 2.07, 157.04 0 M23 0 C76.46 0.24, 129.16 0.59, 157.04 0 M157.04 0 C172.15 -1.52, 181.89 8.35, 180.04 23 M157.04 0 C171.74 0.37, 180.5 7.54, 180.04 23 M180.04 23 C181.3 38.46, 181.74 55.98, 180.04 69 M180.04 23 C179.93 34.93, 180.68 48.89, 180.04 69 M180.04 69 C180.5 82.82, 171.84 92.53, 157.04 92 M180.04 69 C181.14 85.09, 174.48 92.78, 157.04 92 M157.04 92 C115.5 91.34, 71.95 93.21, 23 92 M157.04 92 C118.14 92.75, 80.12 93.39, 23 92 M23 92 C9.05 91.33, -0.23 83.48, 0 69 M23 92 C7.97 93.31, -1.57 85.09, 0 69 M0 69 C1.89 50.27, -1 35.99, 0 23 M0 69 C0.66 52.29, 0.83 37.18, 0 23 M0 23 C0.3 5.88, 8.04 -0.78, 23 0 M0 23 C-2.11 6.14, 9.96 -0.32, 23 0" stroke="#1e1e1e" stroke-width="2" fill="none"></path></g><g transform="translate(528.8682631382959 195.67595818815334) rotate(0 81.59166717529303 35)"><text x="81.59166717529297" y="0" font-family="Virgil, Segoe UI Emoji" font-size="28px" fill="#1e1e1e" text-anchor="middle" style="white-space: pre;" direction="ltr" dominant-baseline="text-before-edge">Conflict</text><text x="81.59166717529297" y="35" font-family="Virgil, Segoe UI Emoji" font-size="28px" fill="#1e1e1e" text-anchor="middle" style="white-space: pre;" direction="ltr" dominant-baseline="text-before-edge">Management</text></g><g stroke-linecap="round"><g transform="translate(150 228.12883867319727) rotate(0 62.5 -13.586647591689882)"><path d="M0.97 -0.62 C21.84 -5.43, 105.16 -23.27, 126.02 -27.72 M0.02 1.67 C20.75 -2.47, 104.62 -21.84, 125.61 -26.46" stroke="#1e1e1e" stroke-width="2" fill="none"></path></g><g transform="translate(150 228.12883867319727) rotate(0 62.5 -13.586647591689882)"><path d="M104.58 -12.95 C111.16 -16.38, 119.02 -21.15, 125.61 -26.46 M104.58 -12.95 C111.62 -16.36, 116.51 -20.46, 125.61 -26.46" stroke="#1e1e1e" stroke-width="2" fill="none"></path></g><g transform="translate(150 228.12883867319727) rotate(0 62.5 -13.586647591689882)"><path d="M100.82 -29.63 C108.93 -26.96, 118.18 -25.59, 125.61 -26.46 M100.82 -29.63 C108.92 -28.18, 114.91 -27.45, 125.61 -26.46" stroke="#1e1e1e" stroke-width="2" fill="none"></path></g></g><mask></mask><g stroke-linecap="round"><g transform="translate(414 192.91099890946884) rotate(0 52.5 10.307283736075533)"><path d="M1.02 -0.54 C18.55 2.98, 88.84 17.12, 106.15 20.49 M0.1 1.79 C17.49 5.55, 88.48 18.84, 105.8 21.97" stroke="#1e1e1e" stroke-width="2" fill="none"></path></g><g transform="translate(414 192.91099890946884) rotate(0 52.5 10.307283736075533)"><path d="M81.14 26.1 C89.65 26.23, 99.75 22.51, 105.8 21.97 M81.14 26.1 C86.35 25.25, 92.35 24.11, 105.8 21.97" stroke="#1e1e1e" stroke-width="2" fill="none"></path></g><g transform="translate(414 192.91099890946884) rotate(0 52.5 10.307283736075533)"><path d="M84.25 9.29 C91.49 15.84, 100.4 18.53, 105.8 21.97 M84.25 9.29 C88.92 12.21, 94.22 14.84, 105.8 21.97" stroke="#1e1e1e" stroke-width="2" fill="none"></path></g></g><mask></mask><g stroke-linecap="round" transform="translate(10 184.5) rotate(0 60.5 38.5)"><path d="M19.25 0 C50.84 -1.02, 81.32 1.06, 101.75 0 M19.25 0 C47.04 -0.19, 74.81 -0.73, 101.75 0 M101.75 0 C115.24 1.53, 120.89 8.4, 121 19.25 M101.75 0 C116.69 -0.44, 122.25 6.19, 121 19.25 M121 19.25 C120.71 29.87, 119.11 39.04, 121 57.75 M121 19.25 C122.1 32.16, 121.43 43.41, 121 57.75 M121 57.75 C121.63 72.57, 113.5 78.97, 101.75 77 M121 57.75 C121.9 70.3, 114.8 79, 101.75 77 M101.75 77 C80.27 78.55, 57.19 76.93, 19.25 77 M101.75 77 C79.85 77.8, 60.01 77.18, 19.25 77 M19.25 77 C7.88 78.76, -1.79 69.45, 0 57.75 M19.25 77 C7.4 78.23, 0.52 68.33, 0 57.75 M0 57.75 C1.56 43.57, -1.61 29.17, 0 19.25 M0 57.75 C1.35 47.57, 0.46 36.96, 0 19.25 M0 19.25 C0.88 7.37, 6.05 -1.99, 19.25 0 M0 19.25 C-0.78 5.12, 8.49 -1.43, 19.25 0" stroke="#1e1e1e" stroke-width="2" fill="none"></path></g><g stroke-linecap="round" transform="translate(20 194.5) rotate(0 60.5 38.5)"><path d="M19.25 0 C50.35 1.94, 85.18 -0.46, 101.75 0 M19.25 0 C45.7 -0.56, 71.7 0.81, 101.75 0 M101.75 0 C114.48 1.98, 122.83 6.03, 121 19.25 M101.75 0 C115.84 -0.22, 120.17 4.14, 121 19.25 M121 19.25 C119.51 31.76, 121.55 46.28, 121 57.75 M121 19.25 C121.6 31.08, 121.67 45.88, 121 57.75 M121 57.75 C119.92 72.55, 115.37 76.75, 101.75 77 M121 57.75 C121.21 72.58, 113.8 76.06, 101.75 77 M101.75 77 C74.69 77.34, 48.11 77.84, 19.25 77 M101.75 77 C73 76.98, 43.61 78.15, 19.25 77 M19.25 77 C4.62 75.87, 0.86 71.65, 0 57.75 M19.25 77 C6.93 74.75, 1.75 69.54, 0 57.75 M0 57.75 C-2.05 42.98, -1.05 25.61, 0 19.25 M0 57.75 C-0.28 48.06, 0.06 40.23, 0 19.25 M0 19.25 C-0.36 4.43, 5.74 -1.13, 19.25 0 M0 19.25 C2.07 4.99, 6.08 -0.84, 19.25 0" stroke="#1e1e1e" stroke-width="2" fill="none"></path></g><g stroke-linecap="round" transform="translate(32 202.5) rotate(0 60.5 38.5)"><path d="M19.25 0 C43.74 -1.31, 67.17 -0.36, 101.75 0 M19.25 0 C43.88 1.26, 67.8 1.49, 101.75 0 M101.75 0 C116.42 -0.38, 122.09 6.22, 121 19.25 M101.75 0 C113.75 -2.28, 121.89 6.53, 121 19.25 M121 19.25 C121.24 32.63, 121.37 45.93, 121 57.75 M121 19.25 C121.41 33.1, 120.55 45.95, 121 57.75 M121 57.75 C121.79 70.34, 114.77 78.74, 101.75 77 M121 57.75 C120.22 69.64, 115.04 77.53, 101.75 77 M101.75 77 C70.42 77.17, 41.94 75.54, 19.25 77 M101.75 77 C75.02 77.64, 45.94 76.19, 19.25 77 M19.25 77 C7.27 78.07, 0.45 68.63, 0 57.75 M19.25 77 C8.17 75.96, 2.15 72.18, 0 57.75 M0 57.75 C-0.44 43.78, -0.98 35.48, 0 19.25 M0 57.75 C0.4 47.22, -0.22 34.74, 0 19.25 M0 19.25 C-0.68 5.29, 8.22 -1.24, 19.25 0 M0 19.25 C-0.34 5.58, 6.61 0.71, 19.25 0" stroke="#1e1e1e" stroke-width="2" fill="none"></path></g><g transform="translate(65.77499961853027 223.5) rotate(0 26.725000381469727 17.5)"><text x="26.725000381469727" y="0" font-family="Virgil, Segoe UI Emoji" font-size="28px" fill="#1e1e1e" text-anchor="middle" style="white-space: pre;" direction="ltr" dominant-baseline="text-before-edge">Txs</text></g><g stroke-linecap="round"><g transform="translate(150.02003484320562 236.33515912407836) rotate(0 63.5 -88.19756081330058)"><path d="M-0.86 0.33 C20.43 -29.09, 106.45 -147.02, 127.77 -176.3 M0.89 -0.55 C22.08 -29.78, 106.32 -145.27, 127.23 -174.72" stroke="#1e1e1e" stroke-width="2" fill="none"></path></g><g transform="translate(150.02003484320562 236.33515912407836) rotate(0 63.5 -88.19756081330058)"><path d="M120.42 -150.66 C122.99 -156.64, 124.66 -165.13, 127.23 -174.72 M120.42 -150.66 C123.32 -159.08, 126.59 -168.37, 127.23 -174.72" stroke="#1e1e1e" stroke-width="2" fill="none"></path></g><g transform="translate(150.02003484320562 236.33515912407836) rotate(0 63.5 -88.19756081330058)"><path d="M106.55 -160.66 C113.35 -163.5, 119.24 -168.95, 127.23 -174.72 M106.55 -160.66 C114.78 -165.18, 123.36 -170.65, 127.23 -174.72" stroke="#1e1e1e" stroke-width="2" fill="none"></path></g></g><mask></mask><g stroke-linecap="round"><g transform="translate(149.02003484320562 227.0592171201531) rotate(0 63 40.57209164122537)"><path d="M1.2 -0.78 C22.2 12.59, 105.29 67.23, 125.95 81.04 M0.37 1.42 C21.21 14.92, 103.77 69.39, 124.97 82.52" stroke="#1e1e1e" stroke-width="2" fill="none"></path></g><g transform="translate(149.02003484320562 227.0592171201531) rotate(0 63 40.57209164122537)"><path d="M100.58 77.02 C106.49 78.31, 114.79 78.55, 124.97 82.52 M100.58 77.02 C110.15 78.44, 118.11 81.33, 124.97 82.52" stroke="#1e1e1e" stroke-width="2" fill="none"></path></g><g transform="translate(149.02003484320562 227.0592171201531) rotate(0 63 40.57209164122537)"><path d="M109.82 62.63 C113.11 68.24, 118.69 72.72, 124.97 82.52 M109.82 62.63 C115.88 69.5, 120.36 77.8, 124.97 82.52" stroke="#1e1e1e" stroke-width="2" fill="none"></path></g></g><mask></mask><g stroke-linecap="round"><g transform="translate(149.02003484320562 224.07801960613108) rotate(0 63.5 100.94025219728292)"><path d="M0.33 1.07 C21.15 34.57, 104.95 168.48, 126.09 201.89 M-0.96 0.58 C20.13 34.21, 107.08 169.76, 128.32 203.44" stroke="#1e1e1e" stroke-width="2" fill="none"></path></g><g transform="translate(149.02003484320562 224.07801960613108) rotate(0 63.5 100.94025219728292)"><path d="M108.49 188.21 C118.23 192.67, 124.33 200.47, 128.32 203.44 M108.49 188.21 C114.14 192, 119.41 195.7, 128.32 203.44" stroke="#1e1e1e" stroke-width="2" fill="none"></path></g><g transform="translate(149.02003484320562 224.07801960613108) rotate(0 63.5 100.94025219728292)"><path d="M122.92 179.03 C127.01 187.16, 127.39 198.6, 128.32 203.44 M122.92 179.03 C124.64 185.24, 126.04 191.4, 128.32 203.44" stroke="#1e1e1e" stroke-width="2" fill="none"></path></g></g><mask></mask><g stroke-linecap="round"><g transform="translate(413.0000000000001 63.34679097507342) rotate(0 72.19550232053228 59.85533557729019)"><path d="M0.19 0.77 C24.34 20.63, 120.95 98.73, 144.83 118.74 M-1.17 0.13 C22.86 20.15, 119.6 99.94, 144.12 119.76" stroke="#1e1e1e" stroke-width="2" fill="none"></path></g><g transform="translate(413.0000000000001 63.34679097507342) rotate(0 72.19550232053228 59.85533557729019)"><path d="M120.52 111.51 C128.74 114.65, 132.79 114.85, 144.12 119.76 M120.52 111.51 C130.71 114.71, 139.04 118.46, 144.12 119.76" stroke="#1e1e1e" stroke-width="2" fill="none"></path></g><g transform="translate(413.0000000000001 63.34679097507342) rotate(0 72.19550232053228 59.85533557729019)"><path d="M131.35 98.27 C136.33 105.33, 137.19 109.44, 144.12 119.76 M131.35 98.27 C137.21 106.68, 141.29 115.62, 144.12 119.76" stroke="#1e1e1e" stroke-width="2" fill="none"></path></g></g><mask></mask><g stroke-linecap="round"><g transform="translate(416.02003484320574 307.81552702770193) rotate(0 46.293499701688745 -17.302665618239416)"><path d="M-0.1 -0.79 C15.01 -6.72, 75.81 -29.23, 91.45 -35.01 M-1.61 1.41 C13.79 -4.4, 77.71 -27.69, 93.56 -33.68" stroke="#1e1e1e" stroke-width="2" fill="none"></path></g><g transform="translate(416.02003484320574 307.81552702770193) rotate(0 46.293499701688745 -17.302665618239416)"><path d="M74.5 -17.51 C80.08 -25.31, 87.7 -27.46, 93.56 -33.68 M74.5 -17.51 C78.47 -21.98, 82.51 -24.81, 93.56 -33.68" stroke="#1e1e1e" stroke-width="2" fill="none"></path></g><g transform="translate(416.02003484320574 307.81552702770193) rotate(0 46.293499701688745 -17.302665618239416)"><path d="M68.56 -33.54 C76.4 -35.47, 86.19 -31.75, 93.56 -33.68 M68.56 -33.54 C73.74 -34.32, 79.16 -33.44, 93.56 -33.68" stroke="#1e1e1e" stroke-width="2" fill="none"></path></g></g><mask></mask><g stroke-linecap="round"><g transform="translate(413.0200348432056 420.93267022514385) rotate(0 70.86327797919245 -71.26597194740509)"><path d="M-1.06 -0.31 C22.53 -24.28, 117.22 -119.16, 141.09 -142.75 M0.58 -1.52 C24.61 -24.79, 119.95 -117.6, 143.46 -141.33" stroke="#1e1e1e" stroke-width="2" fill="none"></path></g><g transform="translate(413.0200348432056 420.93267022514385) rotate(0 70.86327797919245 -71.26597194740509)"><path d="M132.77 -118.74 C134.82 -125.56, 137.73 -129.61, 143.46 -141.33 M132.77 -118.74 C136.54 -126.22, 139.87 -135.52, 143.46 -141.33" stroke="#1e1e1e" stroke-width="2" fill="none"></path></g><g transform="translate(413.0200348432056 420.93267022514385) rotate(0 70.86327797919245 -71.26597194740509)"><path d="M120.75 -130.9 C126.02 -134.47, 132.05 -135.37, 143.46 -141.33 M120.75 -130.9 C128.68 -134.08, 136.26 -139.09, 143.46 -141.33" stroke="#1e1e1e" stroke-width="2" fill="none"></path></g></g><mask></mask><g stroke-linecap="round" transform="translate(787.4790940766554 173.67595818815334) rotate(0 59.02090592334491 52.482578397212535)"><path d="M26.24 0 C46.1 -1.34, 67.58 1.62, 91.8 0 M26.24 0 C48.5 -0.84, 70.41 0.03, 91.8 0 M91.8 0 C107.81 -1.91, 116.26 9.44, 118.04 26.24 M91.8 0 C108.68 -1.28, 118.45 10.52, 118.04 26.24 M118.04 26.24 C119.32 44.23, 118.86 65.6, 118.04 78.72 M118.04 26.24 C117.22 45.12, 118.6 65.38, 118.04 78.72 M118.04 78.72 C119.9 97.92, 107.5 104.96, 91.8 104.97 M118.04 78.72 C119.16 98.33, 110.76 105.76, 91.8 104.97 M91.8 104.97 C73.94 106.32, 58.48 105.37, 26.24 104.97 M91.8 104.97 C78.16 105.67, 64.04 105.54, 26.24 104.97 M26.24 104.97 C7.3 106.13, -0.1 97.46, 0 78.72 M26.24 104.97 C7.82 105.01, -1.31 97.75, 0 78.72 M0 78.72 C1.11 60.68, -0.01 44.03, 0 26.24 M0 78.72 C0.36 68.35, -0.74 57.08, 0 26.24 M0 26.24 C-1.03 8.85, 7.62 -0.53, 26.24 0 M0 26.24 C-0.35 7.78, 10.35 -1.09, 26.24 0" stroke="#1e1e1e" stroke-width="2" fill="none"></path></g><g transform="translate(825.4083328247075 208.65853658536594) rotate(0 21.09166717529297 17.5)"><text x="21.09166717529297" y="0" font-family="Virgil, Segoe UI Emoji" font-size="28px" fill="#1e1e1e" text-anchor="middle" style="white-space: pre;" direction="ltr" dominant-baseline="text-before-edge">DB</text></g><g stroke-linecap="round" transform="translate(785.959930313589 169.4773519163764) rotate(0 60.04006968641113 20.153310104529623)"><path d="M32.95 2.19 C41.72 0.23, 56.48 -0.86, 67.12 -0.62 C77.76 -0.39, 88.43 1.22, 96.8 3.58 C105.18 5.94, 113.9 9.91, 117.37 13.54 C120.85 17.16, 120.26 21.68, 117.65 25.33 C115.03 28.99, 109.49 33.01, 101.68 35.48 C93.87 37.95, 81.46 39.69, 70.78 40.17 C60.1 40.66, 47.57 39.67, 37.62 38.4 C27.66 37.14, 17.22 35.56, 11.06 32.6 C4.91 29.63, 1.2 24.52, 0.68 20.62 C0.16 16.71, 0.88 12.35, 7.93 9.16 C14.98 5.97, 35.18 2.78, 42.99 1.49 C50.8 0.21, 54.35 1.38, 54.81 1.44 M60.88 0.52 C70.93 -0.25, 82.84 -0.07, 91.76 1.68 C100.68 3.43, 109.58 7.4, 114.38 11 C119.19 14.61, 121.99 19.8, 120.58 23.3 C119.16 26.8, 113.27 29.37, 105.87 32 C98.47 34.63, 86.56 37.59, 76.19 39.06 C65.82 40.53, 53.87 41.59, 43.64 40.84 C33.41 40.08, 22.15 37.34, 14.8 34.52 C7.45 31.7, 1.13 27.56, -0.46 23.93 C-2.04 20.3, 0.75 16.2, 5.3 12.75 C9.86 9.3, 17.91 5.21, 26.87 3.25 C35.83 1.29, 53.44 1.7, 59.07 1 C64.69 0.3, 60.57 -1.21, 60.64 -0.96" stroke="#1e1e1e" stroke-width="2" fill="none"></path></g><g stroke-linecap="round" transform="translate(786.0000000000002 242.84668989547026) rotate(0 60.04006968641113 20.153310104529623)"><path d="M66.95 -0.63 C77.15 -0.71, 88.27 1.19, 96.67 3.55 C105.06 5.9, 113.82 9.86, 117.32 13.48 C120.82 17.11, 120.27 21.62, 117.69 25.28 C115.1 28.94, 109.6 32.96, 101.81 35.44 C94.01 37.92, 81.62 39.67, 70.95 40.16 C60.27 40.66, 47.74 39.68, 37.77 38.42 C27.81 37.17, 17.34 35.6, 11.16 32.64 C4.98 29.68, 1.24 24.58, 0.69 20.67 C0.13 16.77, 2.49 12.18, 7.84 9.21 C13.2 6.24, 21.79 4.14, 32.82 2.84 C43.85 1.54, 66.12 1.78, 74.02 1.41 C81.92 1.04, 80.58 0.35, 80.21 0.6 M86.01 0.59 C95.4 1.66, 105.45 5.63, 111.3 9.04 C117.16 12.46, 121.38 17.56, 121.14 21.09 C120.91 24.63, 116.36 27.38, 109.9 30.25 C103.44 33.12, 92.38 36.47, 82.41 38.32 C72.44 40.16, 60.57 41.71, 50.07 41.34 C39.57 40.97, 27.61 38.65, 19.4 36.11 C11.2 33.57, 3.6 29.65, 0.85 26.1 C-1.9 22.56, -0.54 18.41, 2.91 14.81 C6.35 11.22, 13.27 6.83, 21.53 4.55 C29.8 2.27, 41.5 1.76, 52.48 1.13 C63.45 0.49, 81.84 0.42, 87.37 0.72 C92.9 1.02, 86.2 2.46, 85.67 2.93" stroke="#1e1e1e" stroke-width="2" fill="none"></path></g><g stroke-linecap="round"><g transform="translate(702.5875052727044 231.40087508658166) rotate(0 39.0877867598864 -0.42408457168994573)"><path d="M0.05 0.8 C12.88 0.67, 64.48 -1.2, 77.6 -1.59 M-1.38 0.17 C11.19 0.25, 63.07 -0.31, 76.35 -0.44" stroke="#1e1e1e" stroke-width="2" fill="none"></path></g><g transform="translate(702.5875052727044 231.40087508658166) rotate(0 39.0877867598864 -0.42408457168994573)"><path d="M52.95 8.35 C62.55 4.29, 68.21 3.15, 76.35 -0.44 M52.95 8.35 C59.18 6.1, 64.81 4.69, 76.35 -0.44" stroke="#1e1e1e" stroke-width="2" fill="none"></path></g><g transform="translate(702.5875052727044 231.40087508658166) rotate(0 39.0877867598864 -0.42408457168994573)"><path d="M52.77 -8.75 C62.32 -6.8, 68.04 -1.93, 76.35 -0.44 M52.77 -8.75 C58.98 -6.89, 64.65 -4.18, 76.35 -0.44" stroke="#1e1e1e" stroke-width="2" fill="none"></path></g></g><mask></mask></svg>